<svg version="1.1"  xmlns="http://www.w3.org/2000/svg" xmlns:xlink="http://www.w3.org/1999/xlink" x="0px" y="0px"	 viewBox="0 0 220 220" enable-background="new 0 0 220 220" xml:space="preserve"><g id="Layer_2"></g><g>	<circle fill="#004D9E" cx="110.844" cy="110.385" r="103.51"/>	<path fill="#5E4938" d="M161.793,124.068l-41.002-0.594l-23.132,89.589c4.318,0.549,8.718,0.832,13.185,0.832		c22.678,0,43.648-7.298,60.702-19.666L161.793,124.068z"/>	<path fill="#E3D5CC" d="M118.899,171.062l4.761-47.884l0.057-22.729l14.078-11.367l1.43-3.162l-4.141-9.334l-3.011-8.658		c0,0,1.807-2.333,1.354-4.743c-0.451-2.409-4.215-2.635-7.527-4.14c-3.387-1.581-5.044-1.581-5.947-2.936		c-0.904-1.355-0.074-2.259-4.441-5.946c0,0-2.033-1.848-4.575-3.651c0,0-20.835-8.325-32.344,9.941		c-11.509,18.266-6.028,27.582,0,33.884s13.707,19.738,13.785,23.708c0.177,9.032-0.127,12.752-0.127,12.752		S80.828,159.161,118.899,171.062z"/>	<g>		<path fill="#31373F" d="M192.552,85.944l-24.63,15.893c-0.903,0.603-2.034,0.301-2.636-0.528l-27.869-41.953			c-0.602-0.829-0.301-2.034,0.603-2.561l24.63-15.893c0.904-0.602,2.033-0.301,2.637,0.527l27.867,41.953			C193.682,84.212,193.456,85.417,192.552,85.944z"/>		<g>			<polygon fill="#121A20" points="149.686,56.571 148.239,54.328 155.138,49.876 156.586,52.12 149.686,56.571 			"/>		</g>	</g>	<path fill="#826954" d="M65.986,87.506c-1.947,0.971-4.094,1.565-6.37,1.695c-9.713,0.552-18.074-7.582-18.676-18.167		c-0.601-10.585,6.786-19.612,16.499-20.164c4.25-0.242,8.241,1.179,11.435,3.74L65.986,87.506z"/>	<path fill="#5E4938" d="M58.226,77.136c0,4.446,0.854,8.565,2.303,11.965c1.936-0.219,3.773-0.755,5.457-1.595l2.726-31.053		C62.736,58.36,58.226,66.891,58.226,77.136z"/>	<path fill="#826954" d="M92.25,126.797l-42.006,13.551l-6.354,48.971c18.05,15.326,41.42,24.577,66.954,24.577		c1.817,0,3.623-0.048,5.417-0.141l2.487-42.693L92.25,126.797z"/>	<path fill="#826954" d="M92.702,89.985c0,0-6.925-8.281-7.679-9.636c-0.903-1.731,2.409-5.495,2.86-5.495		c0.377,0,0.678,0.15,1.054,0.301c2.709,1.053,6.248,0.978,7.98-1.356c1.731-2.333,0.602-8.506,0.602-8.506		s0.678-11.367,4.743-14.604c2.409-1.882,5.721-3.463,8.808-4.366c-3.915-4.216-9.862-6.474-15.583-5.947		c-2.785,0.301-5.495,1.205-8.206,2.107c-2.86,0.979-5.796,1.958-8.431,3.54c-2.409,1.43-4.517,3.311-6.55,5.193		c-2.86,2.711-5.646,5.496-7.753,8.809c-2.108,3.312-3.538,7.151-3.388,11.066c0.075,2.86,0.978,5.57,1.806,8.28		c1.129,3.463,2.258,7.002,4.065,10.164c1.505,2.709,3.539,5.193,5.947,7.227c3.238,2.785,7.077,4.743,10.54,7.302		s7.678,5.947,8.884,10.088C93.68,112.494,92.702,89.985,92.702,89.985z"/>	<path fill="#E3D5CC" d="M167.004,92.545l-13.475-10.239l2.635-7.376l0.979-3.84l-13.928,11.744l12.798,20.928l1.2,99.186		c6.351-3.188,12.329-7.008,17.851-11.381L167.004,92.545z"/>	<path fill="#9A908D" d="M110.936,99.469c-4.541,0-18.147-7.251-18.147-7.251s9.69,9.233,22.271,15.458l2.786,24.014		c0,0,1.15,12.898,2.527,24.551l3.287-33.062l0.057-22.729l14.078-11.367C137.795,89.082,115.476,99.469,110.936,99.469z"/>	<g>		<g>			<path fill="#826954" d="M105.543,63.603l3.011-9.035c0.166-0.497,0.578-0.871,1.089-0.988l7.414-0.356l1.087,1.641l-7.476,0.951				L105.543,63.603z"/>		</g>		<g id="Path_2159_32_">			<polygon fill="#E94F00" points="136.027,78.779 135.08,76.371 128.245,81.585 			"/>		</g>		<g>			<polygon fill="#9A908D" points="113.216,64.884 111.514,64.17 114.956,57.418 118.397,61.317 113.216,64.884 			"/>		</g>	</g></g></svg>