<svg width="400" height="123" viewBox="0 0 400 123" fill="none" xmlns="http://www.w3.org/2000/svg">
<g clip-path="url(#clip0_171_317)">
<path d="M37.8223 96.7676H28.9074L-0.00137329 29.4551H10.9855L33.3535 84.0711L55.4658 29.4551H66.5913L37.8223 96.7676Z" fill="#6043ED"/>
<path d="M138.747 64.202H82.0244C82.8623 78.8946 92.4519 89.0146 106.906 89.0146C117.613 89.0146 126.364 83.746 128.18 75.4132H138.329C135.676 89.1542 122.757 98.1603 106.627 98.1603C87.0283 98.1603 72.1547 82.9104 72.1547 62.6702C72.0867 58.1358 72.925 53.6329 74.621 49.4252C76.317 45.2175 78.8374 41.3891 82.0335 38.163C85.2295 34.9369 89.0376 32.378 93.2362 30.6358C97.4349 28.8936 101.939 28.0032 106.487 28.016C124.712 28.016 138.887 41.9427 138.887 60.9991C138.91 62.0687 138.864 63.1384 138.747 64.202ZM128.041 56.2871C127.343 44.6815 118.171 36.4647 106.068 36.4647C100.423 36.4219 94.9504 38.3983 90.6415 42.0351C86.3326 45.6719 83.473 50.7283 82.5824 56.2871H128.041Z" fill="#6043ED"/>
<path d="M149.594 76.8062H159.324C160.302 84.4427 167.098 89.4335 176.548 89.4335C185.998 89.4335 192.259 84.7913 192.259 77.8279C192.259 58.8412 151.271 72.8372 151.271 46.771C151.271 35.8153 160.72 27.9238 175.314 27.9238C188.232 27.9238 199.358 35.1189 200.918 47.1887H190.63C189.652 40.9449 183.391 36.3725 175.058 36.3725C166.725 36.3725 161.092 40.2486 161.092 46.0746C161.092 64.2258 202.081 49.6725 202.081 77.5491C202.081 89.4797 191.399 98.0681 176.921 98.0681C161.815 98.1609 150.991 89.967 149.594 76.8062Z" fill="#6043ED"/>
<path d="M255.523 28.0163C244.98 27.8869 234.782 31.7525 226.987 38.8325L217.863 28.0163V122.137H228.011V86.0902C233.876 93.5642 241.115 98.1605 255.523 98.1605C274.144 98.1605 289.017 82.632 289.017 63.0881C289.017 43.5443 274.144 28.0163 255.523 28.0163ZM253.568 88.5972C246.777 88.5972 240.265 85.9076 235.463 81.1193C230.661 76.3311 227.964 69.8365 227.964 63.0649C227.964 56.2933 230.661 49.7993 235.463 45.011C240.265 40.2228 246.777 37.5326 253.568 37.5326C260.359 37.5326 266.871 40.2228 271.673 45.011C276.475 49.7993 279.172 56.2933 279.172 63.0649C279.172 69.8365 276.475 76.3311 271.673 81.1193C266.871 85.9076 260.359 88.5972 253.568 88.5972Z" fill="#6043ED"/>
<path d="M328.843 63.0882C328.843 82.6321 343.716 98.1606 362.337 98.1606C376.745 98.1606 384.008 93.5179 389.873 86.0903V96.7677H400.021V28.0164L390.874 38.8326C383.081 31.7506 372.88 27.8847 362.337 28.0164C343.716 28.0164 328.843 43.5444 328.843 63.0882ZM338.852 63.0882C338.803 59.7299 339.424 56.3954 340.682 53.2796C341.939 50.1637 343.807 47.3288 346.176 44.9409C348.544 42.553 351.366 40.66 354.477 39.3721C357.588 38.0842 360.925 37.427 364.293 37.4397C371.084 37.4397 377.595 40.13 382.397 44.9182C387.199 49.7064 389.897 56.2005 389.897 62.9721C389.897 69.7437 387.199 76.2383 382.397 81.0265C377.595 85.8147 371.084 88.5044 364.293 88.5044C360.941 88.5323 357.616 87.8938 354.513 86.6259C351.411 85.3579 348.593 83.4858 346.225 81.1194C343.856 78.7531 341.984 75.9402 340.718 72.8442C339.452 69.7482 338.818 66.4315 338.852 63.0882Z" fill="#6043ED"/>
<path d="M316.973 7.21849C316.937 9.15262 316.15 10.9978 314.778 12.3656C313.407 13.7335 311.557 14.5179 309.617 14.5536C307.753 14.4486 306 13.636 304.718 12.2829C303.435 10.9298 302.721 9.13867 302.721 7.27686C302.721 5.41505 303.435 3.62393 304.718 2.27081C306 0.917688 307.753 0.105148 309.617 0.00012207C311.537 0.0346964 313.371 0.802941 314.74 2.14614C316.108 3.48934 316.908 5.3047 316.973 7.21849ZM314.645 29.4085V96.7211H304.496V29.4085H314.645Z" fill="#6043ED"/>
</g>
<defs>
<clipPath id="clip0_171_317">
<rect width="400" height="122.137" fill="white"/>
</clipPath>
</defs>
</svg>
